<mxfile host="app.diagrams.net" modified="2024-01-25T08:10:56.683Z" agent="Mozilla/5.0 (Windows NT 10.0; Win64; x64) AppleWebKit/537.36 (KHTML, like Gecko) Chrome/120.0.0.0 Safari/537.36" version="23.0.1" etag="GSuHgL_ajkS5uhk7jtZ7" type="device">
  <diagram id="s0KmNqXEduVx8LfTuSrQ" name="Page-1">
    <mxGraphModel dx="2803" dy="1263" grid="1" gridSize="10" guides="1" tooltips="1" connect="1" arrows="1" fold="1" page="0" pageScale="1" pageWidth="827" pageHeight="1169" background="none" math="0" shadow="0">
      <root>
        <mxCell id="0" />
        <mxCell id="1" parent="0" />
        <mxCell id="node21" value="&lt;p style=&quot;margin:0px;margin-top:4px;text-align:center;&quot;&gt;&lt;b&gt;AdapterWeb&lt;/b&gt;&lt;/p&gt;&lt;hr size=&quot;1&quot;/&gt;&lt;p style=&quot;margin:0 0 0 4px;line-height:1.6;&quot;&gt;+ AdapterWeb(BeastUseCase, UniverseUseCase, UserUseCase): &lt;/p&gt;&lt;hr size=&quot;1&quot;/&gt;&lt;p style=&quot;margin:0 0 0 4px;line-height:1.6;&quot;&gt;+ universesList(): ResponseEntity&amp;lt;List&amp;lt;Universe&amp;gt;&amp;gt;&lt;br/&gt;+ addNewUser(UserValidation): ResponseEntity&amp;lt;String&amp;gt;&lt;br/&gt;+ beastsList(int, int): ResponseEntity&amp;lt;List&amp;lt;Beast&amp;gt;&amp;gt;&lt;br/&gt;+ addBeast(BeastValidation): ResponseEntity&amp;lt;String&amp;gt;&lt;br/&gt;+ deleteBeast(int): ResponseEntity&amp;lt;String&amp;gt;&lt;br/&gt;+ deleteUniverse(int): ResponseEntity&amp;lt;String&amp;gt;&lt;br/&gt;+ addBeastInFavoris(int, int): ResponseEntity&amp;lt;String&amp;gt;&lt;br/&gt;+ deleteBeastInFavoris(int, int): ResponseEntity&amp;lt;String&amp;gt;&lt;br/&gt;+ addUniverse(UniverseValidation): ResponseEntity&amp;lt;String&amp;gt;&lt;br/&gt;+ deleteUser(int): ResponseEntity&amp;lt;String&amp;gt;&lt;br/&gt;+ usersList(): ResponseEntity&amp;lt;List&amp;lt;User&amp;gt;&amp;gt;&lt;/p&gt;" style="verticalAlign=top;align=left;overflow=fill;fontSize=14;fontFamily=Helvetica;html=1;rounded=0;shadow=0;comic=0;labelBackgroundColor=none;strokeWidth=1;" parent="1" vertex="1">
          <mxGeometry x="-1090" y="265" width="373" height="299" as="geometry" />
        </mxCell>
        <mxCell id="node14" value="&lt;p style=&quot;margin:0px;margin-top:4px;text-align:center;&quot;&gt;&lt;b&gt;Beast&lt;/b&gt;&lt;/p&gt;&lt;hr size=&quot;1&quot;/&gt;&lt;p style=&quot;margin:0 0 0 4px;line-height:1.6;&quot;&gt;+ Beast(int, String, String, String): &lt;/p&gt;&lt;hr size=&quot;1&quot;/&gt;&lt;p style=&quot;margin:0 0 0 4px;line-height:1.6;&quot;&gt;- nameBeast: String&lt;br/&gt;- descriptionBeast: String&lt;br/&gt;- imgBeast: String&lt;br/&gt;- idBeast: int&lt;/p&gt;&lt;hr size=&quot;1&quot;/&gt;&lt;p style=&quot;margin:0 0 0 4px;line-height:1.6;&quot;&gt; nameBeast: String&lt;br/&gt; idBeast: int&lt;br/&gt; descriptionBeast: String&lt;br/&gt; imgBeast: String&lt;/p&gt;" style="verticalAlign=top;align=left;overflow=fill;fontSize=14;fontFamily=Helvetica;html=1;rounded=0;shadow=0;comic=0;labelBackgroundColor=none;strokeWidth=1;" parent="1" vertex="1">
          <mxGeometry x="-100" y="760" width="219" height="236" as="geometry" />
        </mxCell>
        <mxCell id="node25" value="&lt;p style=&quot;margin:0px;margin-top:4px;text-align:center;&quot;&gt;&lt;b&gt;BeastAdapterPersistence&lt;/b&gt;&lt;/p&gt;&lt;hr size=&quot;1&quot;/&gt;&lt;p style=&quot;margin:0 0 0 4px;line-height:1.6;&quot;&gt;+ BeastAdapterPersistence(BeastsRepository): &lt;/p&gt;&lt;hr size=&quot;1&quot;/&gt;&lt;p style=&quot;margin:0 0 0 4px;line-height:1.6;&quot;&gt;+ deleteBeastFromUserFavoris(int, int): void&lt;br/&gt;+ storeBeastsByUser(int): List&amp;lt;Beast&amp;gt;&lt;br/&gt;+ addBeastToUniverse(int, int): void&lt;br/&gt;+ storeBeastsByUniverse(int): List&amp;lt;Beast&amp;gt;&lt;br/&gt;+ addBeastToUserFavoris(int, int): void&lt;br/&gt;+ deleteBeastFromUniverse(int, int): void&lt;br/&gt;+ deleteBeastFromDB(int): void&lt;br/&gt;+ storeAllBeasts(): List&amp;lt;Beast&amp;gt;&lt;br/&gt;+ addNewBeastToDB(BeastValidation): void&lt;/p&gt;" style="verticalAlign=top;align=left;overflow=fill;fontSize=14;fontFamily=Helvetica;html=1;rounded=0;shadow=0;comic=0;labelBackgroundColor=none;strokeWidth=1;" parent="1" vertex="1">
          <mxGeometry x="840" y="250" width="281" height="255" as="geometry" />
        </mxCell>
        <mxCell id="node11" value="&lt;p style=&quot;margin:0px;margin-top:4px;text-align:center;&quot;&gt;&lt;i&gt;&amp;lt;&amp;lt;interface&amp;gt;&amp;gt;&lt;/i&gt;&lt;br/&gt;&lt;b&gt;BeastPersistence&lt;/b&gt;&lt;/p&gt;&lt;hr size=&quot;1&quot;/&gt;&lt;p style=&quot;margin:0 0 0 4px;line-height:1.6;&quot;&gt;+ storeBeastsByUniverse(int): List&amp;lt;Beast&amp;gt;&lt;br/&gt;+ storeBeastsByUser(int): List&amp;lt;Beast&amp;gt;&lt;br/&gt;+ addBeastToUserFavoris(int, int): void&lt;br/&gt;+ storeAllBeasts(): List&amp;lt;Beast&amp;gt;&lt;br/&gt;+ addBeastToUniverse(int, int): void&lt;br/&gt;+ deleteBeastFromUserFavoris(int, int): void&lt;br/&gt;+ addNewBeastToDB(BeastValidation): void&lt;br/&gt;+ deleteBeastFromDB(int): void&lt;br/&gt;+ deleteBeastFromUniverse(int, int): void&lt;/p&gt;" style="verticalAlign=top;align=left;overflow=fill;fontSize=14;fontFamily=Helvetica;html=1;rounded=0;shadow=0;comic=0;labelBackgroundColor=none;strokeWidth=1;" parent="1" vertex="1">
          <mxGeometry x="360" y="380" width="269" height="230" as="geometry" />
        </mxCell>
        <mxCell id="node10" value="&lt;p style=&quot;margin:0px;margin-top:4px;text-align:center;&quot;&gt;&lt;b&gt;BeastService&lt;/b&gt;&lt;/p&gt;&lt;hr size=&quot;1&quot;/&gt;&lt;p style=&quot;margin:0 0 0 4px;line-height:1.6;&quot;&gt;+ BeastService(BeastPersistence): &lt;/p&gt;&lt;hr size=&quot;1&quot;/&gt;&lt;p style=&quot;margin:0 0 0 4px;line-height:1.6;&quot;&gt;+ addBeastInUniverse(int, int): void&lt;br/&gt;+ addBeastInUserFavoris(int, int): void&lt;br/&gt;+ getBeastByUser(int): List&amp;lt;Beast&amp;gt;&lt;br/&gt;+ deleteBeastInUserFavoris(int, int): void&lt;br/&gt;+ deleteBeast(int): void&lt;br/&gt;+ deleteBeastInUniverse(int, int): void&lt;br/&gt;+ getBeastByUniverse(int): List&amp;lt;Beast&amp;gt;&lt;br/&gt;+ addNewBeast(BeastValidation): void&lt;/p&gt;&lt;hr size=&quot;1&quot;/&gt;&lt;p style=&quot;margin:0 0 0 4px;line-height:1.6;&quot;&gt; allBeast: List&amp;lt;Beast&amp;gt;&lt;/p&gt;" style="verticalAlign=top;align=left;overflow=fill;fontSize=14;fontFamily=Helvetica;html=1;rounded=0;shadow=0;comic=0;labelBackgroundColor=none;strokeWidth=1;" parent="1" vertex="1">
          <mxGeometry x="-119" y="268" width="252" height="258" as="geometry" />
        </mxCell>
        <mxCell id="node1" value="&lt;p style=&quot;margin:0px;margin-top:4px;text-align:center;&quot;&gt;&lt;i&gt;&amp;lt;&amp;lt;interface&amp;gt;&amp;gt;&lt;/i&gt;&lt;br/&gt;&lt;b&gt;BeastUseCase&lt;/b&gt;&lt;/p&gt;&lt;hr size=&quot;1&quot;/&gt;&lt;p style=&quot;margin:0 0 0 4px;line-height:1.6;&quot;&gt;+ addNewBeast(BeastValidation): void&lt;br/&gt;+ addBeastInUserFavoris(int, int): void&lt;br/&gt;+ getBeastByUniverse(int): List&amp;lt;Beast&amp;gt;&lt;br/&gt;+ deleteBeastInUniverse(int, int): void&lt;br/&gt;+ deleteBeast(int): void&lt;br/&gt;+ addBeastInUniverse(int, int): void&lt;br/&gt;+ getBeastByUser(int): List&amp;lt;Beast&amp;gt;&lt;br/&gt;+ deleteBeastInUserFavoris(int, int): void&lt;/p&gt;&lt;hr size=&quot;1&quot;/&gt;&lt;p style=&quot;margin:0 0 0 4px;line-height:1.6;&quot;&gt; allBeast: List&amp;lt;Beast&amp;gt;&lt;/p&gt;" style="verticalAlign=top;align=left;overflow=fill;fontSize=14;fontFamily=Helvetica;html=1;rounded=0;shadow=0;comic=0;labelBackgroundColor=none;strokeWidth=1;" parent="1" vertex="1">
          <mxGeometry x="-540" y="309" width="252" height="233" as="geometry" />
        </mxCell>
        <mxCell id="node5" value="&lt;p style=&quot;margin:0px;margin-top:4px;text-align:center;&quot;&gt;&lt;b&gt;BeastValidation&lt;/b&gt;&lt;/p&gt;&lt;hr size=&quot;1&quot;/&gt;&lt;p style=&quot;margin:0 0 0 4px;line-height:1.6;&quot;&gt;+ BeastValidation(String, String, String): &lt;/p&gt;&lt;hr size=&quot;1&quot;/&gt;&lt;p style=&quot;margin:0 0 0 4px;line-height:1.6;&quot;&gt;- imgBeast: String&lt;br/&gt;- descriptionBeast: String&lt;br/&gt;- nameBeast: String&lt;/p&gt;&lt;hr size=&quot;1&quot;/&gt;&lt;p style=&quot;margin:0 0 0 4px;line-height:1.6;&quot;&gt; nameBeast: String&lt;br/&gt; descriptionBeast: String&lt;br/&gt; imgBeast: String&lt;/p&gt;" style="verticalAlign=top;align=left;overflow=fill;fontSize=14;fontFamily=Helvetica;html=1;rounded=0;shadow=0;comic=0;labelBackgroundColor=none;strokeWidth=1;" parent="1" vertex="1">
          <mxGeometry x="-540" y="740" width="252" height="192" as="geometry" />
        </mxCell>
        <mxCell id="node3" value="&lt;p style=&quot;margin:0px;margin-top:4px;text-align:center;&quot;&gt;&lt;b&gt;BeastsRepository&lt;/b&gt;&lt;/p&gt;&lt;hr size=&quot;1&quot;/&gt;&lt;p style=&quot;margin:0 0 0 4px;line-height:1.6;&quot;&gt;+ BeastsRepository(JdbcTemplate): &lt;/p&gt;&lt;hr size=&quot;1&quot;/&gt;&lt;p style=&quot;margin:0 0 0 4px;line-height:1.6;&quot;&gt;+ insertBeastToUserBeast(int, int): void&lt;br/&gt;+ selectAllBeasts(): List&amp;lt;Beast&amp;gt;&lt;br/&gt;+ deleteBeastAssociationInBeastUser(int): void&lt;br/&gt;+ insertBeastToBeastUniverse(int, int): void&lt;br/&gt;+ deleteBeastAssociationInBeastUniverse(int): void&lt;br/&gt;+ selectBeastsByUniverse(int): List&amp;lt;Beast&amp;gt;&lt;br/&gt;+ deleteBeastFromBeastUser(int, int): void&lt;br/&gt;+ selectBeastsByUser(int): List&amp;lt;Beast&amp;gt;&lt;br/&gt;+ deleteBeastFromTheDB(int): void&lt;br/&gt;+ deleteBeastFromTheUniverse(int, int): void&lt;br/&gt;+ insertNewBeast(BeastValidation): void&lt;/p&gt;" style="verticalAlign=top;align=left;overflow=fill;fontSize=14;fontFamily=Helvetica;html=1;rounded=0;shadow=0;comic=0;labelBackgroundColor=none;strokeWidth=1;" parent="1" vertex="1">
          <mxGeometry x="828" y="660" width="305" height="299" as="geometry" />
        </mxCell>
        <mxCell id="node12" value="&lt;p style=&quot;margin:0px;margin-top:4px;text-align:center;&quot;&gt;&lt;b&gt;Config&lt;/b&gt;&lt;/p&gt;&lt;hr size=&quot;1&quot;/&gt;&lt;p style=&quot;margin:0 0 0 4px;line-height:1.6;&quot;&gt;+ Config(): &lt;/p&gt;&lt;hr size=&quot;1&quot;/&gt;&lt;p style=&quot;margin:0 0 0 4px;line-height:1.6;&quot;&gt; userUseCase: UserUseCase&lt;br/&gt; beastUseCase: BeastUseCase&lt;br/&gt; universeUseCase: UniverseUseCase&lt;/p&gt;" style="verticalAlign=top;align=left;overflow=fill;fontSize=14;fontFamily=Helvetica;html=1;rounded=0;shadow=0;comic=0;labelBackgroundColor=none;strokeWidth=1;" parent="1" vertex="1">
          <mxGeometry x="-119" y="-10" width="329" height="150" as="geometry" />
        </mxCell>
        <mxCell id="edge0" value="" style="html=1;rounded=1;edgeStyle=orthogonalEdgeStyle;dashed=1;startArrow=none;endArrow=block;endSize=12;strokeColor=#008200;exitX=0;exitY=0.5;exitDx=0;exitDy=0;entryX=1;entryY=0.5;entryDx=0;entryDy=0;" parent="1" source="node25" target="node11" edge="1">
          <mxGeometry width="50" height="50" relative="1" as="geometry">
            <Array as="points">
              <mxPoint x="810" y="378" />
              <mxPoint x="810" y="495" />
            </Array>
          </mxGeometry>
        </mxCell>
        <mxCell id="edge1" value="" style="html=1;rounded=1;edgeStyle=orthogonalEdgeStyle;dashed=1;startArrow=none;endArrow=block;endSize=12;strokeColor=#008200;entryX=0.995;entryY=0.601;entryDx=0;entryDy=0;entryPerimeter=0;" parent="1" target="node1" edge="1">
          <mxGeometry width="50" height="50" relative="1" as="geometry">
            <Array as="points" />
            <mxPoint x="-120" y="420" as="sourcePoint" />
          </mxGeometry>
        </mxCell>
        <object placeholders="1" c4Type="Relationship" id="uAo7Pz8E1w_nl9OPZlgr-1">
          <mxCell style="endArrow=blockThin;html=1;fontSize=10;fontColor=#404040;strokeWidth=1;endFill=1;strokeColor=#828282;elbow=vertical;metaEdit=1;endSize=14;startSize=14;jumpStyle=arc;jumpSize=16;rounded=0;edgeStyle=orthogonalEdgeStyle;entryX=0;entryY=0.5;entryDx=0;entryDy=0;exitX=0.988;exitY=0.589;exitDx=0;exitDy=0;exitPerimeter=0;" edge="1" parent="1" source="node10" target="node11">
            <mxGeometry width="240" relative="1" as="geometry">
              <mxPoint x="180" y="450" as="sourcePoint" />
              <mxPoint x="-210" y="640" as="targetPoint" />
            </mxGeometry>
          </mxCell>
        </object>
        <object placeholders="1" c4Type="Relationship" id="uAo7Pz8E1w_nl9OPZlgr-2">
          <mxCell style="endArrow=blockThin;html=1;fontSize=10;fontColor=#404040;strokeWidth=1;endFill=1;strokeColor=#828282;elbow=vertical;metaEdit=1;endSize=14;startSize=14;jumpStyle=arc;jumpSize=16;rounded=0;edgeStyle=orthogonalEdgeStyle;entryX=0.4;entryY=0.009;entryDx=0;entryDy=0;entryPerimeter=0;shape=flexArrow;" edge="1" parent="1" target="node14">
            <mxGeometry width="240" relative="1" as="geometry">
              <mxPoint x="-3" y="538" as="sourcePoint" />
              <mxPoint x="390" y="740" as="targetPoint" />
            </mxGeometry>
          </mxCell>
        </object>
        <object placeholders="1" c4Type="Relationship" id="uAo7Pz8E1w_nl9OPZlgr-6">
          <mxCell style="endArrow=blockThin;html=1;fontSize=10;fontColor=#404040;strokeWidth=1;endFill=1;strokeColor=#828282;elbow=vertical;metaEdit=1;endSize=14;startSize=14;jumpStyle=arc;jumpSize=16;rounded=0;edgeStyle=orthogonalEdgeStyle;entryX=0.46;entryY=-0.012;entryDx=0;entryDy=0;entryPerimeter=0;exitX=0.451;exitY=0.999;exitDx=0;exitDy=0;exitPerimeter=0;" edge="1" parent="1" source="node25" target="node3">
            <mxGeometry width="240" relative="1" as="geometry">
              <mxPoint x="580" y="590" as="sourcePoint" />
              <mxPoint x="820" y="590" as="targetPoint" />
            </mxGeometry>
          </mxCell>
        </object>
        <object placeholders="1" c4Type="Relationship" id="uAo7Pz8E1w_nl9OPZlgr-8">
          <mxCell style="endArrow=blockThin;html=1;fontSize=10;fontColor=#404040;strokeWidth=1;endFill=1;strokeColor=#828282;elbow=vertical;metaEdit=1;endSize=14;startSize=14;jumpStyle=arc;jumpSize=16;rounded=0;edgeStyle=orthogonalEdgeStyle;" edge="1" parent="1" target="node1">
            <mxGeometry width="240" relative="1" as="geometry">
              <mxPoint x="-717" y="430" as="sourcePoint" />
              <mxPoint x="-550" y="440" as="targetPoint" />
              <Array as="points" />
            </mxGeometry>
          </mxCell>
        </object>
        <object placeholders="1" c4Type="Relationship" id="uAo7Pz8E1w_nl9OPZlgr-9">
          <mxCell style="endArrow=blockThin;html=1;fontSize=10;fontColor=#404040;strokeWidth=1;endFill=1;strokeColor=#828282;elbow=vertical;metaEdit=1;endSize=14;startSize=14;jumpStyle=arc;jumpSize=16;rounded=0;edgeStyle=orthogonalEdgeStyle;exitX=0.5;exitY=1;exitDx=0;exitDy=0;entryX=0.5;entryY=0;entryDx=0;entryDy=0;" edge="1" parent="1" source="node1" target="node5">
            <mxGeometry width="240" relative="1" as="geometry">
              <mxPoint x="-490" y="670" as="sourcePoint" />
              <mxPoint x="-250" y="670" as="targetPoint" />
            </mxGeometry>
          </mxCell>
        </object>
        <mxCell id="uAo7Pz8E1w_nl9OPZlgr-10" value="" style="strokeWidth=2;html=1;shape=mxgraph.flowchart.database;whiteSpace=wrap;" vertex="1" parent="1">
          <mxGeometry x="1300" y="724.5" width="180" height="170" as="geometry" />
        </mxCell>
        <object placeholders="1" c4Type="Relationship" id="uAo7Pz8E1w_nl9OPZlgr-11">
          <mxCell style="endArrow=blockThin;html=1;fontSize=10;fontColor=#404040;strokeWidth=1;endFill=1;strokeColor=#828282;elbow=vertical;metaEdit=1;endSize=14;startSize=14;jumpStyle=arc;jumpSize=16;rounded=0;edgeStyle=orthogonalEdgeStyle;exitX=-0.009;exitY=0.405;exitDx=0;exitDy=0;exitPerimeter=0;entryX=1.013;entryY=0.59;entryDx=0;entryDy=0;entryPerimeter=0;" edge="1" parent="1" source="uAo7Pz8E1w_nl9OPZlgr-10" target="node3">
            <mxGeometry width="240" relative="1" as="geometry">
              <mxPoint x="830" y="710" as="sourcePoint" />
              <mxPoint x="1160" y="840" as="targetPoint" />
            </mxGeometry>
          </mxCell>
        </object>
      </root>
    </mxGraphModel>
  </diagram>
</mxfile>
